PathFileType	4	(X/Y/Z)	C:\Users\WrightLab\Desktop\Jo\P1_boxCal20.trc
DataRate	CameraRate	NumFrames	NumMarkers	Units	OrigDataRate	OrigDataStartFrame	OrigNumFrames
100.00	100.00	       64	19	mm	100.00	235	       937
Frame#	Time	Headset_Front			Headset_Back			Headset_Left			Headset_Right			Left_Shoulder			Right_Shoulder			Sternum			C7			Left Elbow			Right Elbow			Left Wrist			Right Wrist			Left ASIS			Right ASIS			S2			Left Knee			Right Knee			Left Ankle			Right Ankle			
		X1	Y1	Z1	X2	Y2	Z2	X3	Y3	Z3	X4	Y4	Z4	X5	Y5	Z5	X6	Y6	Z6	X7	Y7	Z7	X8	Y8	Z8	X9	Y9	Z9	X10	Y10	Z10	X11	Y11	Z11	X12	Y12	Z12	X13	Y13	Z13	X14	Y14	Z14	X15	Y15	Z15	X16	Y16	Z16	X17	Y17	Z17	X18	Y18	Z18	X19	Y19	Z19	

235	2.340																																																	-210.30011	484.45346	2350.13062							
236	2.350																																																	-211.46381	483.50809	2350.30884							
237	2.360																																																	-212.97382	483.20883	2349.90137							
238	2.370																																																	-214.58620	483.27826	2348.29712							
239	2.380																																																	-216.43427	484.20731	2348.92554							
240	2.390																																																	-217.57076	483.91595	2349.86133							
241	2.400																																																	-219.08247	484.34433	2349.80615							
242	2.410																																																	-221.33138	483.72775	2347.37207							
243	2.420																																																	-222.79926	484.42603	2346.76270							
244	2.430																																																	-225.48428	484.33493	2344.15015							
245	2.440																																																	-227.43111	484.38086	2344.90698							
246	2.450																																																	-229.14915	484.78757	2344.95117							
247	2.460																																																	-232.09647	484.55289	2342.62524							
248	2.470																																																	-233.66011	484.40936	2343.16260							
249	2.480																																																	-236.86069	484.95096	2341.30981							
250	2.490																																																	-238.70685	484.87689	2340.34375							
251	2.500																																																	-242.21976	485.09714	2337.56909							
252	2.510																																																	-244.27121	484.89532	2338.42578							
253	2.520																																																	-247.51859	486.07294	2337.28369							
254	2.530																																																	-249.94681	485.29947	2335.71704							
255	2.540																																																	-253.17499	486.20245	2333.38818							
256	2.550																																																	-256.04999	486.55557	2333.19897							
257	2.560																																																	-259.15039	487.15848	2330.60083							
258	2.570																																																	-262.36301	487.43500	2328.03198							
259	2.580																																																	-265.87415	487.95227	2325.59619							
260	2.590																																																	-269.20236	488.64130	2324.04346							
261	2.600																																																	-273.16895	489.30023	2320.12476							
262	2.610																																																	-276.84885	490.85104	2316.56079							
263	2.620																																																	-280.89523	490.66025	2311.92798							
264	2.630																																																	-284.65836	490.89197	2308.93408							
265	2.640																																																	-288.80942	491.73047	2303.36987							
266	2.650																																																	-292.57562	491.97183	2298.94971							
267	2.660																																																	-296.68045	491.68597	2293.43823							
268	2.670																																																	-302.19962	493.20731	2285.34229							
269	2.680																																																	-306.47479	493.55643	2279.14868							
270	2.690																																																	-310.48669	494.10974	2274.39551							
271	2.700																																																	-314.37753	494.19379	2268.13501							
272	2.710																																																	-319.43481	494.08298	2259.30298							
273	2.720																																																	-323.42633	494.39114	2252.23535							
274	2.730																																																	-329.08234	495.28995	2243.44507							
275	2.740																																																	-332.65387	495.40100	2235.96045							
276	2.750																																																	-337.69681	495.46741	2226.35205							
277	2.760																																																	-341.88724	495.15768	2217.96606							
278	2.770																																																	-346.73029	496.67029	2206.45972							
279	2.780																																																	-351.63181	496.59442	2194.63135							
280	2.790																																																	-356.46826	497.18433	2183.54028							
281	2.800																																																	-361.54272	497.33759	2170.72559							
282	2.810																																																	-365.89417	497.77655	2161.65991							
283	2.820																																																	-372.24741	498.89362	2148.11987							
284	2.830																																																	-377.35538	499.54938	2138.36694							
285	2.840																												-280.78143	1058.52197	2209.62646																			-382.95313	500.94019	2128.81860							
286	2.850																												-285.76077	1058.94617	2205.86914																			-388.63409	502.29132	2118.90869							
287	2.860																												-290.51379	1059.31091	2202.78638																			-395.56915	503.86194	2106.87622							
288	2.870																												-294.68314	1059.52551	2199.17334																			-402.35016	505.78741	2097.37109							
289	2.880																												-298.39493	1059.59827	2196.04175				-368.08862	922.31219	1987.25085													-408.55032	506.72165	2088.24365							
290	2.890																												-302.83160	1059.95557	2192.86523				-371.76141	922.69214	1983.36023													-415.03561	509.01877	2080.06006							
291	2.900																												-307.25314	1058.95459	2187.79321				-374.96207	922.78125	1980.37610													-421.69009	510.47754	2070.76440							
292	2.910																												-310.79080	1060.80273	2184.94702				-378.76486	922.74768	1977.09070													-429.03479	513.59247	2062.73975							
293	2.920																												-314.30090	1061.39490	2180.95361				-381.82141	923.06860	1972.68286													-435.88239	515.55493	2054.34595							
294	2.930																												-318.15451	1061.78540	2176.82104				-384.87598	923.24634	1969.15295													-443.03778	518.32782	2046.50500							
295	2.940																												-321.54318	1062.13745	2172.77319				-387.86197	923.70367	1964.76465													-448.91385	520.34961	2042.60156							
296	2.950																												-325.11661	1062.58655	2169.09888				-390.40350	923.97461	1960.37842													-456.40195	522.05157	2035.36450							
297	2.960																												-328.75287	1062.60815	2164.34277				-392.62103	922.67499	1955.22021													-462.61557	523.71777	2029.32776							
298	2.970																												-331.94815	1062.82861	2159.87524				-395.75296	922.63611	1949.80347													-469.53424	526.14948	2024.97815							
